<svg width="396" height="396" viewBox="0 0 350 160.9770040784061"
    class="looka-1j8o68f">
    <defs id="SvgjsDefs1172"></defs>
    <g id="SvgjsG1173" featurekey="symbolFeature-0"
        transform="matrix(0.3589743589743589,0,0,0.3589743589743589,83.41025641025641,-46.768975673577714)"
        fill="#3dd2cc">
        <g xmlns="http://www.w3.org/2000/svg">
            <polygon
                points="121.6,256.1 170.1,207.7 143.5,181.1 68.5,256.1 122.5,310.1 148.9,283.4  "></polygon>
            <polygon
                points="389.5,202.1 363.1,228.7 390.4,256.1 342.1,304.6 368.5,331.1 443.5,256.1  "></polygon>
            <rect x="96.9" y="237.3"
                transform="matrix(0.7071 -0.7071 0.7071 0.7071 -106.0356 256.0074)" width="318.2"
                height="37.5"></rect>
        </g>
    </g>
    <g id="SvgjsG1174" featurekey="nameFeature-0"
        transform="matrix(1.4367815731961462,0,0,1.4367815731961462,-1.8390800300289953,93.10344837036011)"
        fill="#3dd2cc">
        <path
            d="M23.72 29.560000000000002 c0 4.72 -2.24 7.44 -3.68 8.64 c-1.2 1 -3.64 2.44 -7.56 2.44 c-1.08 0 -5.32 -0.2 -8.2 -3 c-1.24 -1.2 -3 -3.76 -3 -8.12 c0 -1.2 0.08 -4.6 2.44 -7.44 c1.44 -1.72 4.32 -3.88 9.6 -3.56 c2.44 0.12 4.6 0.68 6.56 2.24 c2.6 2.12 3.84 5.44 3.84 8.8 z M17.48 29.759999999999998 c0 -3.16 -1 -4.76 -2.2 -5.6 c-0.56 -0.4 -1.4 -0.8 -3.04 -0.8 c-0.28 0 -1.44 0.08 -2.32 0.6 c-1.12 0.64 -2.44 2.44 -2.44 5.52 c0 2.04 0.68 3.56 1.08 4.2 c0.48 0.72 1.68 2.04 4 2.04 c3.4 0 4.92 -2.84 4.92 -5.96 z M48 29.52 c-0.04 3.56 -1.16 5.92 -1.92 7.12 c-1.16 1.76 -2.6 2.68 -3.28 3 s-1.92 0.76 -3.88 0.76 c-2.2 0 -3.32 -0.64 -5.12 -1.76 l0 8.6 l-6.24 0 l0 -28.12 l5.48 0 l0.04 2.04 c0.32 -0.4 0.44 -0.6 0.88 -0.92 c0.76 -0.64 2.4 -1.6 4.96 -1.6 c1.2 0 4 0.2 6.28 2.64 c2.12 2.24 2.8 5.32 2.8 8.24 z M42.08 29.439999999999998 c0 -0.6 0.08 -3.32 -1.44 -5.12 c-0.48 -0.56 -1.12 -1 -1.84 -1.2 c-0.4 -0.12 -0.72 -0.12 -0.88 -0.12 c-2.28 0 -4.4 2.08 -4.4 6.6 c0 0.44 -0.08 2.96 1.08 4.68 c0.32 0.44 0.72 0.84 1.2 1.12 c0.28 0.2 1 0.56 1.96 0.56 c2.12 0 2.96 -1.52 3.32 -2.16 c0.48 -0.88 1 -2.12 1 -4.36 z M71.64 30.84 l-14.92 0 c0 0.2 -0.04 0.68 0.08 1.24 c0.48 2.44 2.2 3.96 4.68 3.96 c0.36 0 1.16 -0.04 2 -0.36 c2.08 -0.72 3 -2.84 3.28 -3.36 l4.64 2.4 c-0.84 1.24 -1.28 1.8 -1.76 2.36 c-3.08 3.4 -7.08 3.68 -8.64 3.68 c-0.64 0 -2.12 -0.04 -3.76 -0.56 c-4.64 -1.44 -6.8 -5.52 -6.8 -10.24 c0 -1.28 0.08 -5.16 2.68 -8.16 c1.28 -1.44 3.48 -3.32 8.04 -3.32 c1.4 0 5.56 0.16 8.16 3.8 c2.36 3.24 2.28 7.56 2.32 8.56 z M65.28 27 c-0.08 -0.68 -0.2 -2.8 -2.28 -3.72 c-0.84 -0.4 -1.52 -0.4 -1.88 -0.4 c-2.44 0 -3.56 1.8 -3.88 2.52 c-0.16 0.36 -0.32 0.8 -0.48 1.6 l8.52 0 z M93.88 40 l-6.16 0 l0 -11.8 c0 -1.4 -0.04 -2.44 -0.24 -3 c-0.28 -0.72 -1.04 -1.68 -2.8 -1.68 c-0.28 0 -1.32 0 -2.08 0.64 c-1.04 0.8 -1.16 2.08 -1.16 4.56 l0 11.28 l-6.16 0 l0 -20.84 l6.24 0 l0 1.8 c0.2 -0.2 0.44 -0.52 0.96 -0.92 c0.76 -0.56 2.44 -1.44 4.92 -1.44 c0.48 0 2.24 0.04 3.72 0.84 c2.56 1.36 2.76 3.72 2.76 6.28 l0 14.28 z M129.76 47.2 l-6.16 0 l-0.04 -8.68 c-0.36 0.28 -0.72 0.56 -1.12 0.8 c-0.68 0.4 -2.16 1.12 -4.24 1.12 c-3.2 0 -6.04 -1.88 -7.44 -4.72 c-0.24 -0.52 -0.6 -1.32 -0.88 -2.6 c-0.16 -0.68 -0.32 -1.72 -0.32 -3.32 c0 -0.92 0.12 -4.8 2.12 -7.68 c1.6 -2.28 4.2 -3.56 6.92 -3.56 c2.44 0 3.8 0.8 5.56 2.36 l0 -1.8 l5.6 0 l0 28.08 z M124.03999999999999 29.36 c0 -4.04 -1.64 -6.08 -3.64 -6.36 c-1.44 -0.2 -2.8 0.6 -3.6 1.72 c-0.84 1.24 -1.16 3.28 -1.16 4.76 c0 1.28 0.24 2.2 0.36 2.68 c0.12 0.36 1.12 3.72 3.84 3.72 c2.24 0 4.2 -2.16 4.2 -6.52 z M153.83999999999997 40 l-6.16 0 l0 -1.96 c-0.44 0.48 -0.68 0.72 -0.92 0.92 c-0.76 0.6 -2.6 1.64 -5.16 1.64 c-0.48 0 -2.8 0 -4.44 -1.28 c-2.32 -1.84 -2.12 -5.2 -2.12 -7.76 l0 -12.44 l6.2 0 l0 13 c0 1.32 0.04 2.32 1.16 3 c0.36 0.2 0.88 0.48 1.8 0.48 c1.96 0 3 -1.12 3.28 -1.88 c0.2 -0.52 0.24 -1.04 0.24 -1.6 l0 -13 l6.12 0 l0 20.88 z M165.51999999999998 16.52 l-6.12 0 l0 -4.76 l6.12 0 l0 4.76 z M165.51999999999998 40 l-6.12 0 l0 -20.88 l6.12 0 l0 20.88 z M189.28 35.08 c-0.44 0.68 -0.92 1.4 -1.44 2 c-2.76 3.24 -6.32 3.6 -7.84 3.6 c-0.92 0 -2.76 -0.12 -4.88 -1.16 c-3.92 -1.92 -5.48 -5.64 -5.48 -9.8 c0 -0.96 0.04 -2.96 1.04 -5.28 c2.36 -5.48 7.52 -5.92 9.44 -5.92 c1.64 0 5.32 0.32 8.12 3.84 c0.24 0.32 0.4 0.56 0.8 1.2 l-4.56 2.6 c-0.04 -0.12 -0.36 -0.76 -0.68 -1.2 c-0.36 -0.44 -1.52 -1.72 -3.4 -1.72 c-0.44 0 -1.32 0.04 -2.24 0.72 c-2.12 1.6 -2.2 5.16 -2.2 5.56 c0 1.8 0.6 4.12 2 5.28 c0.4 0.32 1.28 1 2.64 1 c2 -0.04 3.08 -1.36 3.44 -1.88 c0.2 -0.32 0.36 -0.56 0.6 -1.24 z M213.68 40 l-7.12 0 l-5.36 -9 l-2.64 2.52 l0 6.48 l-6 0 l0 -28.24 l6.04 0 l0 14.52 l6.76 -7.16 l7.4 0 l-7.2 7.44 z M222.07999999999998 40 l-6.12 0 l0 -28.24 l6.12 0 l0 28.24 z M244.88 19.12 l-7.36 22.56 c-0.48 1.48 -0.96 2.76 -2.04 3.92 c-1.32 1.36 -2.52 1.6 -4.36 1.6 l-4.44 0 l0 -4.92 l2.8 0 c1.44 0 1.92 -0.8 1.92 -1.52 c0 -0.56 -0.12 -1 -0.44 -2 c-0.2 -0.64 -0.4 -1.28 -0.6 -1.96 l-5.48 -17.68 l6.56 0 l3.44 14.96 l3.44 -14.96 l6.56 0 z"></path>
    </g>
</svg>